<svg version="1.1" id="Layer_1" xmlns="http://www.w3.org/2000/svg" xmlns:xlink="http://www.w3.org/1999/xlink" viewBox="0 0 501.551 501.551" xml:space="preserve" fill="#000000"><g id="SVGRepo_bgCarrier" stroke-width="0"></g><g id="SVGRepo_tracerCarrier" stroke-linecap="round" stroke-linejoin="round"></g><g id="SVGRepo_iconCarrier"> <path style="fill:#F2F2F2;" d="M400.196,121.208h-7.314C381.388,53.29,321.829,1.045,250.776,1.045S120.163,53.29,108.669,121.208 h-7.314C44.931,121.208,0,166.139,0,222.563l0,0c0,38.661,21.943,73.143,54.335,89.861v149.42h392.882V313.469 c32.392-16.718,54.335-51.2,54.335-89.861l0,0C501.551,167.184,456.62,121.208,400.196,121.208z"></path> <g> <rect x="54.335" y="462.89" style="fill:#E2E2E2;" width="392.882" height="37.616"></rect> <rect x="87.604" y="347.261" style="fill:#E2E2E2;" width="21.943" height="86.727"></rect> <rect x="148.522" y="346.906" style="fill:#E2E2E2;" width="21.943" height="86.727"></rect> <rect x="209.398" y="346.634" style="fill:#E2E2E2;" width="21.943" height="86.727"></rect> <rect x="270.315" y="347.376" style="fill:#E2E2E2;" width="21.943" height="86.727"></rect> <rect x="331.233" y="347.063" style="fill:#E2E2E2;" width="21.943" height="86.727"></rect> <rect x="392.192" y="346.749" style="fill:#E2E2E2;" width="21.943" height="86.727"></rect> </g> </g></svg>